HIERARCHY
ROOT Hips
{
	OFFSET 0.00000 0.00000 0.00000
	CHANNELS 6 Xposition Yposition Zposition Zrotation Yrotation Xrotation 
	JOINT LHipJoint
	{
		OFFSET 0 0 0
		CHANNELS 3 Zrotation Yrotation Xrotation
		JOINT LeftHip
		{
			OFFSET 1.56857 -1.73443 1.15205
			CHANNELS 3 Zrotation Yrotation Xrotation
			JOINT LeftKnee
			{
				OFFSET 2.39362 -6.57643 0.00000
				CHANNELS 3 Zrotation Yrotation Xrotation
				JOINT LeftAnkle
				{
					OFFSET 2.50952 -6.89485 0.00000
					CHANNELS 3 Zrotation Yrotation Xrotation
					JOINT LeftToe
					{
						OFFSET 0.17171 -0.47178 1.88682
						CHANNELS 3 Zrotation Yrotation Xrotation
						End Site
						{
							OFFSET 0.00000 -0.00000 0.98146
						}
					}
				}
			}
		}
	}
	JOINT RHipJoint
	{
		OFFSET 0 0 0
		CHANNELS 3 Zrotation Yrotation Xrotation
		JOINT RightHip
		{
			OFFSET -1.28153 -1.73443 1.15205
			CHANNELS 3 Zrotation Yrotation Xrotation
			JOINT RightKnee
			{
				OFFSET -2.26861 -6.23296 0.00000
				CHANNELS 3 Zrotation Yrotation Xrotation
				JOINT RightAnkle
				{
					OFFSET -2.54143 -6.98254 0.00000
					CHANNELS 3 Zrotation Yrotation Xrotation
					JOINT RightToe
					{
						OFFSET -0.23309 -0.64041 1.93119
						CHANNELS 3 Zrotation Yrotation Xrotation
						End Site
						{
							OFFSET -0.00000 -0.00000 1.02013
						}
					}
				}
			}
		}
	}
	JOINT lowerback
	{
		OFFSET 0 0 0
		CHANNELS 3 Zrotation Yrotation Xrotation
		JOINT Chest
		{
			OFFSET -0.07096 2.10460 -0.27878
			CHANNELS 3 Zrotation Yrotation Xrotation
			JOINT Chest2
			{
				OFFSET -0.00826 2.13662 -0.08279
				CHANNELS 3 Zrotation Yrotation Xrotation
				JOINT lowerneck
				{
					OFFSET 0 0 0
					CHANNELS 3 Zrotation Yrotation Xrotation
					JOINT Neck
					{
						OFFSET 0.03239 1.77799 0.24435
						CHANNELS 3 Zrotation Yrotation Xrotation
						JOINT Head
						{
							OFFSET 0.01026 1.74194 -0.49664
							CHANNELS 3 Zrotation Yrotation Xrotation
							End Site
							{
								OFFSET 0.00170 1.83057 -0.19653
							}
						}
					}
				}
				JOINT LeftCollar
				{
					OFFSET 0 0 0
					CHANNELS 3 Zrotation Yrotation Xrotation
					JOINT LeftShoulder
					{
						OFFSET 3.19178 1.35907 -0.31412
CHANNELS 3 Zrotation Xrotation Yrotation
						JOINT LeftElbow
						{
OFFSET 0 -4.852470 -0.000000
CHANNELS 3 Zrotation Xrotation Yrotation
							JOINT LeftWrist
							{
OFFSET 0 -3.555840 0.000000
CHANNELS 3 Zrotation Xrotation Yrotation
								JOINT lhand
								{
									OFFSET 0 0 0
CHANNELS 3 Zrotation Xrotation Yrotation
									JOINT LFingers
									{
OFFSET 0 -0.693200 0.000000
CHANNELS 3 Zrotation Xrotation Yrotation
										End Site
										{
OFFSET 0 -0.558880 0.000000
										}
									}
								}
								JOINT LThumb
								{
OFFSET 0 0.000000 0.000000
CHANNELS 3 Zrotation Xrotation Yrotation
									End Site
									{
OFFSET 0 -0.567410 0.567410
									}
								}
							}
						}
					}
				}
				JOINT RightCollar
				{
					OFFSET 0 0 0
					CHANNELS 3 Zrotation Yrotation Xrotation
					JOINT RightShoulder
					{
						OFFSET -3.28999 1.24191 -0.26899
CHANNELS 3 Zrotation Xrotation Yrotation
						JOINT RightElbow
						{
OFFSET 0 -4.644620 0.000000
CHANNELS 3 Zrotation Xrotation Yrotation
							JOINT RightWrist
							{
OFFSET 0 -3.407030 0.000000
CHANNELS 3 Zrotation Xrotation Yrotation
								JOINT rhand
								{
									OFFSET 0 0 0
CHANNELS 3 Zrotation Xrotation Yrotation
									JOINT RFingers
									{
OFFSET 0 -0.619580 0.000000
CHANNELS 3 Zrotation Xrotation Yrotation
										End Site
										{
OFFSET 0 -0.499520 0.000000
										}
									}
								}
								JOINT RThumb
								{
OFFSET 0 0.000000 0.000000
CHANNELS 3 Zrotation Xrotation Yrotation
									End Site
									{
OFFSET 0 -0.507150 0.507150
									}
								}
							}
						}
					}
				}
			}
		}
	}
}
MOTION
Frames: 9
Frame Time: 0.008333333333333333
5.760461 18.047155 -1.618404 -115.069100 69.285132 -113.950361 0.000000 0.000000 0.000000 0.806816 -11.580201 -0.528460 0.519598 4.618922 12.824859 0.486437 6.871924 -17.455779 0.378518 3.951500 10.940239 0.000000 0.000000 0.000000 -14.779212 12.178140 -2.388354 -11.557893 -18.182855 64.563389 -1.278912 -14.192056 21.152169 -2.923572 -10.569134 30.841311 -5.824875 1.944040 14.866625 -1.967871 1.918839 4.669475 0.872690 1.073074 -3.480471 -1.835300 -1.064179 -16.987142 -17.975398 8.835906 35.532487 -5.862729 1.643683 16.870658 0.000000 0.000000 0.000000 8.461727 22.312546 -38.986738 24.454619 -35.640523 7.970276 5.740756 -2.976368 19.430387 0.000000 0.000000 0.000000 -7.125000 0.000000 0.000000 -14.537193 10.928216 -11.915872 0.000000 0.000000 0.000000 -1.878153 -3.795689 -2.937152 -34.882913 -44.726837 -14.731377 -32.889482 -28.000898 35.459851 0.000000 0.000000 0.000000 7.125000 0.000000 0.000000 0.600231 70.283237 -0.344837
5.740448 18.060113 -1.652894 -112.827269 69.520165 -111.721404 0.000000 0.000000 0.000000 0.886074 -10.976820 -0.068388 0.453425 4.319686 11.977852 0.456062 7.372776 -17.539227 0.363591 3.873611 10.721342 0.000000 0.000000 0.000000 -14.392310 10.091755 -3.412619 -9.232453 -16.943861 56.874013 -0.897498 -16.219141 19.054766 -2.785061 -10.338041 30.079149 -5.774716 2.192227 14.897275 -2.166593 2.267006 4.855475 0.576027 1.245925 -3.310025 -1.873281 -0.912241 -16.978106 -17.912840 9.236143 35.924746 -5.794599 1.806458 17.139823 0.000000 0.000000 0.000000 8.846273 21.652670 -37.776454 25.124421 -36.330457 8.363683 7.711475 -4.335987 20.498153 0.000000 0.000000 0.000000 -7.125000 0.000000 0.000000 -13.269126 9.738947 -11.145293 0.000000 0.000000 0.000000 -1.785916 -3.571564 0.065554 -33.716828 -43.872974 -13.916697 -27.506335 -31.531513 35.002501 0.000000 0.000000 0.000000 7.125000 0.000000 0.000000 7.946192 68.120042 -4.406110
5.724009 18.072421 -1.692610 -110.885504 69.972327 -109.667948 0.000000 0.000000 0.000000 0.558400 -10.572286 0.250090 0.413756 4.128580 11.438703 0.456897 7.714015 -17.857966 0.408135 4.101026 11.360989 0.000000 0.000000 0.000000 -14.082810 7.939837 -4.292521 -7.101429 -15.411050 49.246792 -0.377148 -18.890027 16.390888 -3.271937 -11.121868 32.693036 -5.994859 2.399075 14.803859 -2.379396 2.521309 4.948218 0.435967 1.371774 -3.172385 -1.557949 -0.632666 -16.887723 -18.117363 9.810887 36.241869 -5.880162 2.071048 17.418795 0.000000 0.000000 0.000000 8.964320 21.181769 -36.039579 25.838093 -37.048224 8.789905 10.400093 -5.475828 20.267706 0.000000 0.000000 0.000000 -7.125000 0.000000 0.000000 -11.563730 9.728794 -9.646538 0.000000 0.000000 0.000000 -1.984702 -2.867720 3.902861 -32.737742 -43.127427 -13.242527 -23.932102 -31.878905 33.021027 0.000000 0.000000 0.000000 7.125000 0.000000 0.000000 10.870133 65.084936 -5.307962
5.716398 18.087004 -1.730209 -108.580518 69.844336 -107.244618 0.000000 0.000000 0.000000 1.012905 -9.998944 0.488133 0.366430 3.888357 10.762704 0.432932 8.034475 -17.876840 0.459385 4.347545 12.056452 0.000000 0.000000 0.000000 -12.553743 6.229267 -4.605600 -5.165770 -13.562164 41.522502 0.140554 -20.878480 13.559893 -3.520759 -11.493830 33.963904 -5.713778 2.458627 14.715955 -2.300559 2.648441 4.994809 0.344390 1.430975 -3.076388 -2.155761 -0.415949 -17.096401 -17.985659 10.541935 36.627221 -5.608883 2.284936 17.786655 0.000000 0.000000 0.000000 8.756082 20.807773 -33.872467 26.457174 -37.656456 9.165637 12.795691 -6.222745 21.079295 0.000000 0.000000 0.000000 -7.125000 0.000000 0.000000 -10.055341 8.678329 -8.558911 0.000000 0.000000 0.000000 -2.350306 -1.912774 8.049102 -32.474999 -42.922617 -13.063168 -24.350984 -26.945302 34.013266 0.000000 0.000000 0.000000 7.125000 0.000000 0.000000 11.177490 66.187873 -5.743763
5.708414 18.098138 -1.767023 -106.344419 69.741588 -104.799668 0.000000 0.000000 0.000000 1.439732 -9.499976 0.453713 0.341622 3.755679 10.390321 0.429892 8.199140 -17.997576 0.539975 4.707482 13.076194 0.000000 0.000000 0.000000 -10.856043 4.754986 -4.773105 -3.509979 -11.460378 33.870788 0.397386 -21.420009 11.803076 -3.221255 -11.043144 32.427426 -5.268886 2.630171 14.466468 -2.401185 2.951817 5.021068 -0.049905 1.579428 -2.905952 -1.922068 -0.311164 -16.776081 -18.413865 10.913851 36.746399 -5.803315 2.449477 17.901049 0.000000 0.000000 0.000000 9.350752 20.222482 -32.693315 27.225985 -38.393568 9.639282 15.220118 -7.573936 21.532412 0.000000 0.000000 0.000000 -7.125000 0.000000 0.000000 -8.535802 7.940452 -7.358904 0.000000 0.000000 0.000000 -2.232117 -0.718000 11.254272 -33.040180 -43.360681 -13.449767 -25.995925 -20.581375 35.179562 0.000000 0.000000 0.000000 7.125000 0.000000 0.000000 10.121279 67.830798 -5.575490
5.702377 18.108291 -1.796265 -104.442252 69.498761 -102.628830 0.000000 0.000000 0.000000 2.035377 -8.823173 0.292321 0.315085 3.608349 9.977424 0.420495 8.197810 -17.887415 0.559900 4.792796 13.318461 0.000000 0.000000 0.000000 -8.800959 3.669606 -4.571353 -2.142836 -9.128365 26.219052 0.322814 -20.881384 11.995540 -2.673988 -10.145143 29.450277 -5.023995 2.557781 14.120731 -2.253970 2.932526 5.233720 -0.005459 1.562247 -2.493301 -2.181235 0.065872 -17.070584 -18.651147 11.827337 36.767017 -5.700682 2.745533 18.182259 0.000000 0.000000 0.000000 9.242911 19.370252 -30.333084 27.812084 -38.941854 10.005626 16.664435 -7.392061 20.433931 0.000000 0.000000 0.000000 -7.125000 0.000000 0.000000 -7.562634 8.878053 -6.363492 0.000000 0.000000 0.000000 -2.522708 0.015481 14.378311 -33.775856 -43.917160 -13.957626 -23.062581 -18.467146 32.833343 0.000000 0.000000 0.000000 7.125000 0.000000 0.000000 11.792679 64.669506 -5.617997
5.705053 18.122104 -1.817291 -102.336457 69.428006 -100.233660 0.000000 0.000000 0.000000 2.438695 -8.215530 0.187312 0.291064 3.469238 9.588000 0.423539 8.376814 -18.094738 0.584181 4.893560 13.605370 0.000000 0.000000 0.000000 -6.805418 2.724393 -4.553355 -1.158990 -6.803427 19.146370 0.026066 -19.981144 13.841550 -2.406966 -9.666691 27.904095 -5.006614 2.524033 13.534294 -2.171661 2.950470 5.480929 0.103627 1.560246 -1.922476 -2.583852 0.445672 -17.335567 -18.682927 12.670298 36.749882 -5.471514 3.009378 18.382509 0.000000 0.000000 0.000000 9.184889 18.742318 -27.856699 28.844060 -39.880744 10.660962 17.631258 -7.094526 19.617358 0.000000 0.000000 0.000000 -7.125000 0.000000 0.000000 -6.899462 9.592949 -5.696107 0.000000 0.000000 0.000000 -2.764068 0.844144 17.449962 -35.060138 -44.852699 -14.856511 -22.329069 -16.169607 31.581850 0.000000 0.000000 0.000000 7.125000 0.000000 0.000000 11.688411 63.218666 -5.205059
5.706556 18.132729 -1.830033 -100.464102 69.547099 -98.033131 0.000000 0.000000 0.000000 2.577403 -7.656208 0.004003 0.273712 3.365266 9.297284 0.417029 8.576428 -18.212863 0.583632 4.891051 13.598173 0.000000 0.000000 0.000000 -4.997276 0.944283 -5.081909 -0.539138 -4.683291 13.011126 -0.344480 -18.480763 15.901385 -2.054491 -8.977798 25.726511 -4.729238 2.598086 13.030387 -2.557307 3.110165 5.493493 -0.451816 1.642596 -1.610789 -2.242032 0.649186 -16.859271 -18.815934 12.884958 36.694667 -5.549858 3.161593 18.290611 0.000000 0.000000 0.000000 10.254572 17.870606 -26.244761 29.491650 -40.453321 11.078449 18.097175 -7.523710 18.859708 0.000000 0.000000 0.000000 -7.125000 0.000000 0.000000 -6.558342 10.315086 -5.314480 0.000000 0.000000 0.000000 -2.268746 2.407615 19.957594 -36.743143 -46.014730 -16.055833 -23.075853 -14.133027 31.143995 0.000000 0.000000 0.000000 7.125000 0.000000 0.000000 10.502882 62.979821 -4.611343
5.709962 18.135291 -1.832686 -99.105339 69.792303 -96.468886 0.000000 0.000000 0.000000 2.466184 -7.180787 0.004672 0.252725 3.234535 8.932510 0.384267 8.811134 -18.066665 0.539814 4.707479 13.076185 0.000000 0.000000 0.000000 -3.218980 -1.983061 -6.270829 -0.228488 -3.070686 8.475957 -0.649452 -16.281620 17.199377 -1.571192 -7.909061 22.438259 -4.762771 2.606967 12.776729 -2.846008 3.150612 5.651350 -0.721508 1.664818 -1.293832 -2.568233 0.875187 -17.387110 -18.325304 13.360323 37.132904 -5.196856 3.301631 18.687215 0.000000 0.000000 0.000000 11.174211 16.880563 -24.542707 30.450461 -41.275742 11.705914 18.455111 -7.737856 17.425058 0.000000 0.000000 0.000000 -7.125000 0.000000 0.000000 -6.254659 11.754766 -4.879161 0.000000 0.000000 0.000000 -2.263958 3.694103 22.677105 -38.791212 -47.335444 -17.545664 -23.326599 -12.815675 32.260820 0.000000 0.000000 0.000000 7.125000 0.000000 0.000000 11.013580 64.161392 -5.143173
